<svg preserveAspectRatio="none" overflow="visible" style="display: block;" width="9.83673" height="9.31868" viewBox="0 0 9.83673 9.31868" fill="none" xmlns="http://www.w3.org/2000/svg">
<g id="Vector">
<path d="M0.227817 8.10709L3.67529 4.65921L0.227817 1.21107C-0.0559633 0.927286 0.227817 0.182928 0.227817 0.182928L4.70397 4.65975L0.227817 9.13577C0.227817 9.13577 -0.0559633 8.39142 0.227817 8.10709Z" fill="white"/>
<path d="M5.2156 8.10709L8.66361 4.65921L5.2156 1.21107C4.93182 0.927286 5.2156 0.182928 5.2156 0.182928L9.6929 4.65975L5.2156 9.13577C5.2156 9.13577 4.93182 8.39142 5.2156 8.10709Z" fill="white"/>
<path d="M0.227817 8.10709L3.67529 4.65921L0.227817 1.21107C-0.0559633 0.927286 0.227817 0.182928 0.227817 0.182928L4.70397 4.65975L0.227817 9.13577C0.227817 9.13577 -0.0559633 8.39142 0.227817 8.10709Z" stroke="white" stroke-width="0.203388"/>
<path d="M5.2156 8.10709L8.66361 4.65921L5.2156 1.21107C4.93182 0.927286 5.2156 0.182928 5.2156 0.182928L9.6929 4.65975L5.2156 9.13577C5.2156 9.13577 4.93182 8.39142 5.2156 8.10709Z" stroke="white" stroke-width="0.203388"/>
</g>
</svg>
